<?xml version="1.0" encoding="UTF-8"?>
<svg id="Camada_1" xmlns="http://www.w3.org/2000/svg" version="1.1" viewBox="0 0 1080 1080">
  <!-- Generator: Adobe Illustrator 30.2.1, SVG Export Plug-In . SVG Version: 2.1.1 Build 1)  -->
  <defs>
    <style>
      .st0, .st1 {
        fill: #f8f2dc;
      }

      .st0, .st2, .st3, .st4 {
        display: none;
      }

      .st5, .st2 {
        stroke: #000;
        stroke-miterlimit: 10;
      }

      .st4 {
        fill: #fe3a00;
      }
    </style>
  </defs>
  <rect class="st2" width="1080" height="1080"/>
  <g class="st3">
    <rect class="st4" x="-30.33" y="-148.1" width="1111.11" height="1376.19"/>
    <g>
      <g id="LOGO">
        <path class="st1" d="M284.4,99.73l-194.26,194.26c11.8-30.78,27.99-59.41,47.81-85.09,17.72-23.01,38.36-43.64,61.36-61.36,25.67-19.82,54.3-36.01,85.09-47.81Z"/>
        <path class="st1" d="M954.5,793.97c-34.19,83.53-100.93,150.3-184.46,184.49l184.46-184.49Z"/>
        <path class="st1" d="M275.52,973.4c-87.8-34.19-157.73-104.12-191.92-191.92l191.92,191.92Z"/>
        <path class="st1" d="M962.4,295.95c-14.61-36.33-35.4-69.51-61.02-98.29l-27.65-27.65c-28.78-25.62-61.96-46.41-98.29-61.02l186.96,186.96Z"/>
        <path class="st1" d="M838.61,805.87l95.11-95.11c-30.49,118.56-123.84,211.91-242.4,242.4l97.55-97.56c-13.65,11.09-28.21,21.13-43.52,30-37.98,21.99-80.66,36.8-126.18,42.53-6.81.86-13.68,1.5-20.59,1.95-6.98.47-14.02.69-21.1.71h-.87c-7.08,0-14.12-.22-21.1-.66l14.41-14.44,51.74-51.74.27-.25,1.61-1.6.27-.27c-14.69,4.59-29.79,8.22-45.27,10.78-.99.15-1.98.32-2.96.47-16.76,2.54-33.92,3.88-51.37,3.88-34.58,0-67.96-5.21-99.35-14.89l.84.84.83.84.82.82,51.98,51.98,13.31,13.3c-7.28.47-14.64.72-22.04.72-3.26,0-6.52-.05-9.78-.12-10.42-.32-20.73-1.09-30.93-2.32-1.01-.1-2.02-.25-3.03-.37-45.52-5.9-88.2-20.86-126.14-43.05-9.87-5.75-19.4-12.02-28.61-18.71l85.53,85.53c-121.96-29.67-217.98-125.69-247.65-247.66l88,88c-6.69-9.21-12.96-18.73-18.72-28.61-22.19-37.94-37.14-80.62-43.04-126.13-.94-7.19-1.63-14.44-2.1-21.75-.47-6.99-.69-14.02-.72-21.13v-.86c0-7.41.25-14.76.72-22.05l67.78,67.79c-3.58-11.58-6.54-23.45-8.86-35.52-.45-2.35-.87-4.72-1.26-7.09-2.99-18.04-4.54-36.61-4.54-55.51,0-34.91,5.3-68.58,15.13-100.22l-68.08,68.08c-.47-7.11-.69-14.27-.69-21.5,0-3.26.05-6.52.12-9.78.32-10.41,1.09-20.73,2.32-30.93l.18-1.38c5.6-45.12,20.14-87.5,41.79-125.27,5.38-9.4,11.2-18.51,17.42-27.32l-83.08,83.11c29.37-123.1,126.26-219.96,249.33-249.34l-85.56,85.56c8.82-6.25,17.9-12.05,27.31-17.43,37.76-21.65,80.14-36.19,125.27-41.79,6.64-.84,13.35-1.48,20.11-1.9,6.99-.47,14.03-.69,21.13-.72h.84c7.24,0,14.42.23,21.53.7l-65.96,65.95-.27.25-1.6,1.63-.25.24c13.18-4.09,26.68-7.4,40.51-9.87,2.37-.42,4.71-.81,7.1-1.18,16.74-2.55,33.9-3.88,51.35-3.88,35.42,0,69.58,5.46,101.65,15.6l-68.58-68.57c6.79-.45,13.65-.64,20.57-.64,3.25,0,6.51.05,9.77.12,10.42.32,20.74,1.09,30.93,2.32.32.25.67.52.99.79l-.77-.76c48.65,5.87,94.15,22.14,134.14,46.48,11.15,6.78,21.89,14.21,32.13,22.21l-91.45-91.43c119.69,30.21,213.91,124.43,244.15,244.13l-93.9-93.88c8.02,10.25,15.45,20.98,22.22,32.14,24.36,39.99,40.63,85.46,46.5,134.13.77,6.25,1.36,12.57,1.75,18.94.47,6.98.7,14.02.72,21.13v.86c0,6.91-.2,13.77-.62,20.59l-68.37-68.38-.25-.24c3.9,12.31,7.11,24.93,9.58,37.81.44,2.35.86,4.72,1.26,7.09,2.98,18.04,4.54,36.6,4.54,55.51,0,35.13-5.36,68.97-15.33,100.81l.86-.86.84-.82.87-.86,51.96-51.99,13.77-13.77c.45,6.98.67,14.02.67,21.13,0,3.26-.05,6.52-.13,9.77-.32,10.42-1.08,20.74-2.32,30.93l-.22,1.85c-5.72,45.52-20.54,88.2-42.55,126.19-8.84,15.3-18.89,29.87-29.97,43.52Z"/>
      </g>
      <g>
        <path class="st5" d="M725.13,495.56c47.06-2.43,74.08,33.55,53.58,61.05-19.4,26.02-71.67,28.36-95.29,3.97-24.21-24.99-3.76-62.67,41.71-65.02ZM726.92,509.45c-42.43,2.07-40.5,55.15,3.47,54.25,44.43-.91,42.54-56.49-3.47-54.25Z"/>
        <polygon class="st5" points="371.04 496.42 371.04 510.31 313.76 510.31 313.76 529.45 359.04 529.45 359.04 519.03 358.36 519.04 313.76 519.04 313.76 562.79 372.16 562.79 372.83 562.79 372.83 576.69 291.39 576.69 291.39 496.42 371.04 496.42"/>
        <path class="st5" d="M439.24,496.42v35.81c.75.11.91-.17,1.33-.47,1.18-.84,2.65-2.02,3.82-2.92,13.83-10.73,27.01-21.88,41.16-32.42h26.62l-44.22,35.09,46.91,45.18h-26.18l-35.8-34.57-13.64,10.34v24.23h-22.37v-80.26h22.37Z"/>
        <path class="st2" d="M608.03,496.39h22.37v80.26h-22.37v-33.96l-44.08,33.96h-26.18l45.64-36.27-46.53-43.99h25.28l35.12,33.21c.87.33,2.11-.81,2.71-1.25,2.81-2.05,5.34-4.36,8.04-6.49v-25.47Z"/>
        <path class="st5" d="M612.5,576.71v-35.81c-.75-.11-.91.17-1.33.47-1.18.84-2.65,2.02-3.82,2.92-13.83,10.73-27.01,21.88-41.16,32.42h-26.62s44.22-35.09,44.22-35.09l-46.91-45.18h26.18s35.8,34.57,35.8,34.57l13.64-10.34v-24.23s22.37,0,22.37,0v80.26s-22.37,0-22.37,0Z"/>
      </g>
    </g>
  </g>
  <g>
    <g id="LOGO1" data-name="LOGO">
      <path class="st1" d="M372.55,115.91l-113.42,113.42c6.89-17.97,16.34-34.69,27.92-49.68,10.35-13.43,22.4-25.48,35.83-35.83,14.99-11.57,31.71-21.03,49.68-27.92Z"/>
      <path class="st1" d="M763.77,521.24c-19.96,48.77-58.93,87.75-107.7,107.71l107.7-107.71Z"/>
      <path class="st1" d="M367.36,625.99c-51.26-19.96-92.09-60.79-112.05-112.05l112.05,112.05Z"/>
      <path class="st1" d="M768.39,230.47c-8.53-21.21-20.67-40.58-35.63-57.39l-16.14-16.14c-16.8-14.96-36.17-27.09-57.39-35.63l109.15,109.15Z"/>
      <path class="st1" d="M696.11,528.18l55.53-55.53c-17.8,69.22-72.3,123.72-141.52,141.52l56.95-56.96c-7.97,6.47-16.47,12.34-25.41,17.52-22.17,12.84-47.09,21.49-73.67,24.83-3.98.5-7.99.88-12.02,1.14-4.08.27-8.19.4-12.32.41h-.51c-4.13,0-8.24-.13-12.32-.39l8.41-8.43,30.21-30.21.16-.15.94-.93.16-.16c-8.58,2.68-17.39,4.8-26.43,6.29-.58.09-1.16.19-1.73.27-9.79,1.48-19.8,2.27-29.99,2.27-20.19,0-39.68-3.04-58-8.69l.49.49.48.49.48.48,30.35,30.35,7.77,7.76c-4.25.27-8.55.42-12.87.42-1.9,0-3.81-.03-5.71-.07-6.08-.19-12.1-.64-18.06-1.35-.59-.06-1.18-.15-1.77-.22-26.58-3.44-51.49-12.18-73.65-25.13-5.76-3.36-11.33-7.02-16.7-10.92l49.94,49.94c-71.2-17.32-127.27-73.38-144.59-144.59l51.38,51.38c-3.91-5.38-7.57-10.94-10.93-16.7-12.96-22.15-21.68-47.07-25.13-73.64-.55-4.2-.95-8.43-1.23-12.7-.27-4.08-.4-8.19-.42-12.34v-.5c0-4.33.15-8.62.42-12.87l39.57,39.58c-2.09-6.76-3.82-13.69-5.17-20.74-.26-1.37-.51-2.76-.74-4.14-1.75-10.53-2.65-21.37-2.65-32.41,0-20.38,3.09-40.04,8.83-58.51l-39.75,39.75c-.27-4.15-.4-8.33-.4-12.55,0-1.9.03-3.81.07-5.71.19-6.08.64-12.1,1.35-18.06l.11-.81c3.27-26.34,11.76-51.09,24.4-73.14,3.14-5.49,6.54-10.81,10.17-15.95l-48.51,48.52c17.15-71.87,73.72-128.42,145.57-145.57l-49.95,49.95c5.15-3.65,10.45-7.04,15.94-10.18,22.05-12.64,46.79-21.13,73.14-24.4,3.88-.49,7.79-.86,11.74-1.11,4.08-.27,8.19-.4,12.34-.42h.49c4.23,0,8.42.13,12.57.41l-38.51,38.5-.16.15-.93.95-.15.14c7.69-2.39,15.58-4.32,23.65-5.76,1.38-.25,2.75-.47,4.15-.69,9.77-1.49,19.79-2.27,29.98-2.27,20.68,0,40.62,3.19,59.35,9.11l-40.04-40.03c3.96-.26,7.97-.37,12.01-.37,1.9,0,3.8.03,5.7.07,6.08.19,12.11.64,18.06,1.35.19.15.39.3.58.46l-.45-.44c28.4,3.43,54.97,12.93,78.32,27.14,6.51,3.96,12.78,8.3,18.76,12.97l-53.39-53.38c69.88,17.64,124.89,72.65,142.54,142.53l-54.82-54.81c4.68,5.98,9.02,12.25,12.97,18.76,14.22,23.35,23.72,49.89,27.15,78.31.45,3.65.79,7.34,1.02,11.06.27,4.08.41,8.19.42,12.34v.5c0,4.03-.12,8.04-.36,12.02l-39.92-39.92-.15-.14c2.28,7.19,4.15,14.56,5.59,22.07.26,1.37.5,2.76.74,4.14,1.74,10.53,2.65,21.37,2.65,32.41,0,20.51-3.13,40.27-8.95,58.86l.5-.5.49-.48.51-.5,30.34-30.35,8.04-8.04c.26,4.08.39,8.19.39,12.34,0,1.9-.03,3.81-.08,5.7-.19,6.08-.63,12.11-1.35,18.06l-.13,1.08c-3.34,26.58-11.99,51.49-24.84,73.67-5.16,8.93-11.03,17.44-17.5,25.41Z"/>
    </g>
    <g>
      <path class="st1" d="M921.23,715.97c96.57-4.99,152.03,68.84,109.96,125.28-39.8,53.4-147.07,58.2-195.55,8.15-49.68-51.29-7.71-128.6,85.59-133.43ZM924.91,744.48c-87.07,4.24-83.11,113.18,7.11,111.33,91.18-1.87,87.31-115.93-7.11-111.33Z"/>
      <polygon class="st1" points="194.58 717.74 194.58 746.25 77.04 746.25 77.04 785.53 169.94 785.53 169.94 764.15 168.57 764.16 77.04 764.16 77.04 853.95 196.87 853.95 198.25 853.95 198.25 882.46 31.12 882.46 31.12 717.74 194.58 717.74"/>
      <path class="st1" d="M334.53,717.74v73.49c1.54.23,1.86-.34,2.74-.96,2.42-1.72,5.44-4.14,7.84-6,28.38-22.03,55.43-44.9,84.47-66.53h54.64l-90.75,72.01,96.26,92.71h-53.72l-73.47-70.95-28,21.22v49.73h-45.91v-164.71h45.91Z"/>
      <path class="st0" d="M680.91,717.69h45.91v164.71h-45.91v-69.69l-90.45,69.69h-53.72l93.65-74.44-95.49-90.28h51.88l72.06,68.15c1.78.68,4.33-1.67,5.55-2.56,5.77-4.21,10.96-8.95,16.51-13.32v-52.27Z"/>
      <path class="st1" d="M690.09,882.5v-73.49c-1.54-.23-1.86.34-2.74.96-2.42,1.72-5.44,4.14-7.84,6-28.38,22.03-55.43,44.9-84.47,66.53h-54.64s90.75-72.01,90.75-72.01l-96.26-92.71h53.72s73.47,70.95,73.47,70.95l28-21.22v-49.73s45.91,0,45.91,0v164.71s-45.91,0-45.91,0Z"/>
    </g>
  </g>
</svg>